<svg width="230" height="228" viewBox="0 0 230 228" fill="none" xmlns="http://www.w3.org/2000/svg">
<g clip-path="url(#clip0_48_3)">
<path d="M96.231 151.45L96.1922 142.229C96.1715 140.693 96.2019 139.157 96.2318 137.621L96.3072 133.012C96.3379 131.384 96.3419 129.751 96.3856 128.12C96.4358 126.489 96.4722 124.858 96.4785 123.231C96.4917 121.059 96.4796 118.887 96.5088 116.716L96.6687 110.205C96.7303 105.861 96.9808 101.527 97.1788 97.1877L97.3399 93.9339L97.5716 90.6854L98.0427 84.1875L98.1651 82.5631L98.3231 80.9424L98.642 77.7008L99.2972 71.2182L100.308 63.2593C100.482 61.9336 100.637 60.605 100.829 59.2819L101.434 55.3166C101.848 52.675 102.223 50.0265 102.675 47.3912L104.085 39.4951C106.071 28.9886 108.303 18.5261 110.993 8.18236C111.388 6.6195 111.837 5.06252 112.31 3.51826C112.809 1.98092 113.348 0.460729 113.874 -1.04374C114.887 -3.92443 116.097 -5.62546 117.314 -6.53669C119.085 -7.86135 120 -5.72469 119.206 -1.50691C118.955 -0.171355 118.635 1.20911 118.276 2.59067C117.9 3.96773 117.522 5.35589 117.155 6.70563C113.587 19.0715 110.948 31.6935 109.258 44.4671C109.024 46.2263 108.785 48.0214 108.547 49.8045C108.328 51.59 108.07 53.3558 107.715 55.0458C106.528 60.4365 105.833 65.9293 105.112 71.4169C104.798 74.1668 104.534 76.9237 104.232 79.6745C104.089 81.0508 103.919 82.424 103.785 83.8004L103.379 87.9278C103.164 89.9705 102.963 92.0172 102.775 94.068C102.607 96.1198 102.492 98.1778 102.356 100.235L101.974 106.408L101.698 112.585C101.007 127.262 100.907 141.978 101.504 156.686C101.566 158.153 101.6 159.599 101.608 161.024C101.617 161.735 101.591 162.442 101.565 163.143C101.554 163.843 101.537 164.536 101.513 165.223C101.416 167.971 101.206 170.612 100.881 173.115C100.576 175.418 99.4793 175.364 98.9257 172.75C98.5391 170.9 98.1655 169.001 97.8095 167.078C97.4682 165.155 97.0699 163.211 96.8806 161.259C96.5674 158.049 96.4837 154.74 96.324 151.476L96.231 151.45Z" fill="black"/>
<path d="M103.057 177.551C106.592 156.209 114.065 142.333 127.04 125.092C113.982 163.072 112.461 193.82 114.145 234.066C102.848 202.229 88.3588 183.168 65.8651 157.883C80.0774 160.489 91.7242 168.153 102.935 177.327" fill="black"/>
<path d="M68.717 161.933L67.8697 161.698C67.5863 161.624 67.2993 161.567 67.0143 161.5L65.3003 161.11L68.3099 155.716C74.0831 162.443 79.7812 169.274 85.207 176.367C86.8664 178.496 88.4483 180.7 90.0603 182.877L92.4153 186.194C93.2131 187.289 93.9746 188.411 94.74 189.528C99.4087 196.253 103.622 203.281 107.352 210.563C111.052 217.855 114.298 225.366 117.071 233.051L111.043 234.169C110.757 227.978 110.48 221.781 110.386 215.565C110.305 212.46 110.319 209.347 110.31 206.235C110.302 204.679 110.352 203.121 110.372 201.564C110.402 200.006 110.413 198.449 110.487 196.89L110.668 192.249C110.739 190.702 110.852 189.156 110.944 187.609L111.089 185.289C111.142 184.516 111.22 183.744 111.285 182.971L111.693 178.336L112.225 173.71C112.317 172.94 112.394 172.167 112.5 171.398L112.831 169.093C113.06 167.558 113.257 166.017 113.513 164.486L114.31 159.896C114.557 158.363 114.896 156.847 115.201 155.325L115.668 153.044C115.821 152.283 115.977 151.522 116.163 150.769C116.879 147.75 117.558 144.72 118.396 141.734C119.949 135.726 121.855 129.83 123.811 123.96L129.772 127.158C126.676 131.269 123.696 135.438 120.983 139.735C118.266 143.994 115.852 148.442 113.76 153.044C111.634 157.665 109.783 162.41 108.214 167.252C107.864 168.413 107.505 169.462 107.138 170.411C106.799 171.369 106.459 172.229 106.107 172.996C105.932 173.38 105.752 173.74 105.578 174.08C105.41 174.422 105.242 174.743 105.071 175.042C104.765 175.586 104.418 176.107 104.033 176.598C103.014 177.883 102.224 177.756 101.804 176.392C101.558 175.429 101.445 174.438 101.47 173.447C101.51 171.902 101.667 170.364 101.939 168.844C102.804 164.119 104.168 159.503 106.01 155.074C108.395 149.351 111.234 143.83 114.5 138.565C117.733 133.329 121.254 128.333 124.87 123.454C125.252 122.939 125.807 122.579 126.434 122.438C127.061 122.297 127.72 122.385 128.292 122.686C128.864 122.987 129.312 123.482 129.554 124.08C129.797 124.678 129.818 125.342 129.615 125.951L129.601 125.992C126.702 134.578 124.357 143.345 122.579 152.24C122.423 152.945 122.294 153.66 122.172 154.379L121.794 156.539L121.41 158.703L121.215 159.785L121.049 160.871C120.824 162.318 120.589 163.757 120.336 165.178C120.272 165.533 120.207 165.887 120.143 166.241L119.974 167.301C119.858 168.005 119.737 168.702 119.61 169.394C118.032 178.281 117.089 187.273 116.787 196.304C116.421 205.362 116.504 214.459 116.613 223.551C116.633 227.014 116.76 230.489 116.857 233.977L116.858 234.004C116.876 234.649 116.664 235.278 116.258 235.777C115.853 236.276 115.282 236.613 114.647 236.728C114.013 236.842 113.356 236.726 112.796 236.401C112.235 236.076 111.807 235.563 111.588 234.953C109.896 230.243 108.141 225.542 106.104 220.966C105.135 218.655 104.039 216.404 102.976 214.137C102.452 213 101.853 211.901 101.297 210.781C100.728 209.666 100.181 208.541 99.5673 207.451L97.7898 204.186C97.1818 203.106 96.5424 202.043 95.9205 200.971L94.9816 199.365L93.9954 197.787L92.0146 194.634C89.2917 190.479 86.4414 186.398 83.4414 182.413C77.4435 174.441 70.9602 166.788 64.3687 159.211L64.3377 159.176C64.0635 158.86 63.8938 158.469 63.852 158.055C63.8102 157.641 63.8985 157.225 64.1046 156.866C64.3107 156.506 64.6243 156.221 65.0018 156.05C65.3793 155.878 65.8019 155.829 66.2108 155.909C70.4929 156.758 74.6797 158.047 78.7046 159.753C80.9645 160.711 83.1624 161.811 85.2848 163.047C87.3233 164.225 89.2944 165.517 91.1884 166.917C94.6989 169.515 97.9564 172.44 100.916 175.652C102.189 177.063 102.598 177.938 102.217 178.188C101.845 178.429 100.651 178.085 98.8122 176.952C93.7341 173.422 88.4309 170.229 82.9371 167.395C81.8123 166.813 80.6573 166.293 79.5123 165.736C78.3478 165.233 77.1928 164.69 76.0056 164.235C74.8325 163.736 73.627 163.334 72.43 162.907L70.6137 162.343C70.0106 162.147 69.392 162.016 68.7828 161.851L68.717 161.933Z" fill="black"/>
</g>
<defs>
<clipPath id="clip0_48_3">
<rect width="230" height="228" fill="white"/>
</clipPath>
</defs>
</svg>
