<svg width="145" height="58" viewBox="0 0 145 58" fill="none" xmlns="http://www.w3.org/2000/svg">
<path d="M141.911 24.4695L141.872 25.2988C141.866 25.5753 141.792 25.8507 141.756 26.1266C141.692 26.6791 141.505 27.2276 141.358 27.7772C140.968 28.872 140.502 29.9643 139.805 31.0385L139.56 31.4426L139.281 31.8436L138.713 32.6448L138.073 33.4386L137.752 33.8353L137.396 34.2281L136.682 35.0133L135.902 35.7903C135.65 36.0504 135.374 36.3071 135.088 36.5625L134.241 37.3301C131.889 39.3622 129.144 41.335 126.025 43.2344C122.884 45.1299 119.294 46.9596 114.921 48.5637C112.739 49.3704 110.361 50.1085 107.816 50.7697C105.244 51.4229 102.506 51.9912 99.6386 52.4675C96.7618 52.9297 93.7815 53.3072 90.7281 53.5961C87.6704 53.8678 84.5594 54.0588 81.4212 54.1676C75.1418 54.3658 68.8135 54.2259 62.6535 53.7525C56.5177 53.2643 50.6019 52.48 45.0735 51.422C44.3241 51.2938 43.63 51.1312 42.9109 50.9841L40.772 50.5313L38.7092 50.0366C38.0242 49.8705 37.3233 49.712 36.6758 49.5276C35.3639 49.1676 34.0113 48.8247 32.778 48.4306L30.8891 47.856L29.0912 47.2464C26.7069 46.4285 24.4718 45.5581 22.3995 44.6405C21.8853 44.4102 21.4031 44.1711 20.9036 43.9367L20.1607 43.5834C19.9097 43.4666 19.6652 43.348 19.4429 43.2239L18.0689 42.4897C17.8419 42.3669 17.6072 42.2459 17.3865 42.1216L16.7577 41.7417C13.352 39.7243 10.7072 37.5588 8.89034 35.3001C7.11573 33.0451 6.08889 30.7251 5.83043 28.3867C5.67893 26.8305 5.83733 25.2724 6.30446 23.724C6.81825 22.178 7.62664 20.6458 8.72416 19.138C10.9981 16.1324 14.352 13.219 19.113 10.5768C21.4935 9.25146 24.2678 8.01934 27.3889 6.90135C30.5443 5.79069 34.053 4.81235 37.8454 3.9858C41.6327 3.16761 45.6364 2.48103 49.8 1.93571L50.576 1.83106L51.3624 1.73696L52.9351 1.54886C53.9867 1.42735 55.0532 1.32291 56.1121 1.20964C57.1837 1.11392 58.2496 1.00892 59.3266 0.921201L60.9448 0.794342L61.7542 0.730992L62.5685 0.677206C71.2628 0.0761794 80.1676 -0.0492145 88.9701 0.305431C97.7472 0.69001 106.437 1.59626 114.165 3.18455C121.933 4.78449 128.354 7.08441 132.77 9.84836C134.966 11.2114 136.781 12.6467 138.187 14.1339C139.588 15.6105 140.713 17.1177 141.556 18.646C142.414 20.1685 143.046 21.7016 143.543 23.2367C144.039 24.7717 144.4 26.316 144.537 27.8672C144.808 30.9641 144.196 34.1143 141.786 37.1434C139.417 40.1932 135.054 43.0046 129.047 45.3523C123.119 47.7022 115.974 49.6315 107.995 51.0365C92.1279 53.8498 73.4491 54.6631 56.1495 53.1709L54.5325 53.0273L52.9299 52.8642C51.8567 52.761 50.8102 52.6267 49.7519 52.5061C47.659 52.2405 45.581 51.9564 43.5702 51.6204C39.5319 50.9616 35.6802 50.169 32.0669 49.2533C28.4553 48.3401 25.0791 47.3163 21.9778 46.1939C18.8858 45.0695 16.0693 43.8548 13.5584 42.5628C7.33604 39.3703 3.18898 35.7328 1.41334 31.9098C-0.244462 28.0753 0.61701 24.1577 3.93133 20.4592C7.19441 16.7606 12.6728 13.3524 19.9956 10.4655C23.6528 9.02352 27.7616 7.73237 32.2432 6.61673C36.7499 5.51682 41.5794 4.59134 46.6483 3.85631C56.7713 2.40657 67.4927 1.54381 78.3969 1.30146C83.9152 1.18714 89.4511 1.36295 94.8227 1.82312C100.188 2.30786 105.303 3.08817 109.979 4.13527C114.632 5.17717 118.865 6.43541 122.565 7.87603C126.261 9.31028 129.448 10.8977 132.058 12.6033C134.681 14.3057 136.689 16.1171 138.037 17.9954C139.402 19.8637 140.223 21.7762 140.488 23.7032C141.04 27.5521 139.546 31.4024 136.684 35.0929C135.242 36.938 133.473 38.7493 131.388 40.5163C129.327 42.2896 126.911 44.009 124.158 45.6616C121.395 47.3241 118.17 48.8859 114.533 50.3241C110.867 51.7681 106.683 53.0372 102.086 54.0992C97.4723 55.1691 92.4116 55.9771 87.0879 56.4937C81.7421 56.9882 76.1983 57.1619 70.689 57.0075C65.239 56.8511 59.8585 56.473 54.6548 55.8808C52.0606 55.5925 49.507 55.2662 46.994 54.9018C44.4846 54.5343 42.0232 54.1285 39.6097 53.6842C34.774 52.7963 30.2262 51.7258 26.0463 50.4915C23.9672 49.8678 22 49.1991 20.1561 48.4894C19.7067 48.3083 19.2274 48.1363 18.8029 47.9475L17.5175 47.385L16.8752 47.1037L16.5542 46.963L16.2597 46.8154L15.0844 46.2243C8.88653 43.048 5.22826 39.3193 3.8886 35.5262C2.54437 31.7182 3.43105 27.8535 6.49374 24.1712C6.68112 23.8905 6.96984 23.6202 7.21845 23.3458L7.98339 22.5243C8.54271 21.9828 9.14814 21.4467 9.74269 20.9095L10.7441 20.1196L11.2451 19.7246C11.4075 19.5922 11.58 19.4615 11.7722 19.3341L12.8867 18.5629L13.444 18.1775C13.6303 18.049 13.8469 17.9264 14.0468 17.8006C17.2413 15.7861 21.0497 13.9006 25.4043 12.1775C29.7387 10.4591 34.614 8.92043 39.936 7.59121C45.2351 6.28185 50.9435 5.19166 56.9488 4.34211C62.1706 3.60245 67.5825 3.04202 73.1093 2.6686C77.6445 2.3616 82.243 2.18497 86.8593 2.14045C93.4062 2.064 99.9554 2.26559 106.366 2.74089C106.804 2.77301 107.218 2.79637 107.597 2.83071L108.655 2.92645L110.287 3.07784C110.755 3.11578 111.215 3.16451 111.665 3.22372C111.763 3.25342 110.245 3.14516 107.243 2.91896C102.765 2.63 98.2345 2.45338 93.6856 2.39044C90.3519 2.35275 87.0148 2.3813 83.6902 2.47596C82.7759 2.50412 81.8391 2.5267 80.8858 2.5625C79.9355 2.60783 78.965 2.65413 77.9744 2.70141C77.48 2.72703 76.9767 2.74417 76.4758 2.77733L74.9574 2.877L73.4095 2.97844C72.889 3.01272 72.3614 3.04395 71.8389 3.09193C60.7711 3.93124 50.2949 5.54679 41.0331 7.84254C31.6654 10.191 23.7252 13.1769 17.6803 16.6243C10.7724 20.5149 6.52648 24.9191 5.27844 29.4883C4.12438 34.0273 6.13393 38.6961 11.6872 42.8057C12.0037 43.0673 12.3969 43.3154 12.776 43.5659L13.9183 44.3162L15.1872 45.0404L15.8212 45.4024C16.0409 45.5211 16.2837 45.6343 16.5139 45.7506L17.9118 46.4438C18.3837 46.6732 18.9191 46.8854 19.4192 47.1071C20.4218 47.5502 21.4881 47.9749 22.6139 48.3795C27.1376 50.0006 32.294 51.3857 37.9273 52.493C43.5633 53.6051 49.5269 54.4967 55.7119 55.152C58.793 55.4798 61.9293 55.739 65.1025 55.9281C68.2638 56.1115 71.4622 56.2034 74.6659 56.2031C77.8539 56.1949 81.0312 56.0724 84.1489 55.8375C87.2592 55.5927 90.29 55.2358 93.1936 54.7726C99.0181 53.834 104.349 52.5536 108.959 50.9861C111.275 50.2051 113.433 49.3676 115.416 48.4799C117.398 47.5879 119.23 46.656 120.905 45.6889C124.245 43.7423 127.096 41.6963 129.425 39.5742C131.805 37.4585 133.726 35.2821 135.17 33.0636C136.585 30.8485 137.408 28.5916 137.63 26.3224L137.677 25.8979L137.671 25.4734L137.655 24.6245C137.659 24.3414 137.581 24.0596 137.548 23.7771C137.499 23.4949 137.474 23.2121 137.406 22.9305C137.136 21.8049 136.674 20.6861 136.022 19.5802C135.853 19.3046 135.699 19.0276 135.519 18.753L134.894 17.9365C134.685 17.6645 134.489 17.3908 134.233 17.1249L133.87 16.7234L133.471 16.326C132.4 15.2661 131.103 14.2365 129.59 13.2461C127.923 12.1461 126.001 11.0966 123.844 10.1081C121.684 9.11225 119.284 8.18417 116.67 7.33422C114.057 6.48305 111.225 5.71935 108.211 5.05297C105.203 4.39112 102.008 3.84174 98.6774 3.41374C97.021 3.20097 95.3323 3.02088 93.6191 2.8743C92.7591 2.80929 91.9063 2.73297 91.0383 2.68525C90.6055 2.65918 90.1753 2.62914 89.7411 2.60611L88.4356 2.54241C84.9403 2.39734 81.4149 2.36417 77.9026 2.44332C74.3958 2.52096 70.9056 2.67374 67.4513 2.90083C64.0027 3.12325 60.606 3.39521 57.2924 3.72696C51.9983 4.24904 46.8616 4.9524 41.9556 5.82699C37.0671 6.70398 32.4996 7.78755 28.3536 9.05381C24.209 10.3267 20.495 11.7641 17.2854 13.3375C15.6777 14.1242 14.1913 14.9409 12.8329 15.784C11.487 16.6304 10.2702 17.5014 9.18772 18.3935C8.09935 19.2852 7.16216 20.1988 6.38109 21.1297C5.59425 22.0598 4.95395 23.0045 4.46311 23.9596C3.98885 24.9155 3.67216 25.8802 3.51464 26.849C3.34698 27.8173 3.36272 28.7885 3.56175 29.756C3.94568 31.6943 5.01156 33.6082 6.73485 35.4537C8.4457 37.3033 10.7509 39.0778 13.6055 40.7426C19.3113 44.0879 27.0893 46.9347 36.3571 49.0696C40.9687 50.1321 45.941 50.9858 51.157 51.6105C53.7597 51.9254 56.4172 52.1808 59.1132 52.375C61.809 52.5717 64.5344 52.7142 67.2761 52.8019C78.297 53.1325 89.3881 52.5908 99.7394 51.2163C104.896 50.5346 109.809 49.6434 114.38 48.5607C116.658 48.0191 118.838 47.4281 120.908 46.7909C122.986 46.1574 124.947 45.4779 126.781 44.7565C129.507 43.6885 131.91 42.5231 133.951 41.2792C135.96 40.0295 137.572 38.7055 138.758 37.3313C141.152 34.5758 141.954 31.6581 141.868 28.7522C141.825 27.297 141.565 25.84 141.164 24.3857C140.758 22.9309 140.238 21.4786 139.544 20.0408C138.152 17.1692 136.051 14.3289 132.528 11.7173C130.789 10.4135 128.639 9.18286 126.12 8.04854C123.59 6.92338 120.658 5.91816 117.398 5.05785L116.161 4.74208C115.756 4.63324 115.335 4.53173 114.901 4.43796C114.033 4.24955 113.174 4.05627 112.3 3.87117L109.597 3.36455C108.686 3.2023 107.74 3.06429 106.814 2.9127C103.044 2.34724 99.1297 1.90916 95.1247 1.60432C91.1084 1.29743 87.0247 1.11276 82.9188 1.05234C78.809 0.985895 74.6909 1.02523 70.5972 1.17003C62.4026 1.45377 54.3816 2.18254 46.8183 3.33052C40.1106 4.35326 34.012 5.81421 28.8441 7.63634C23.7449 9.47178 19.7252 11.6677 16.5951 14.0035C15.816 14.5885 15.0633 15.1798 14.4174 15.7856L13.4289 16.6917C13.1178 16.996 12.8443 17.3051 12.55 17.6116L12.1153 18.0723C11.9726 18.2261 11.8614 18.3833 11.7328 18.5386L10.9851 19.4731C10.7621 19.787 10.5646 20.1032 10.3528 20.4182L10.04 20.8911C9.94522 21.0493 9.87003 21.2091 9.78392 21.368L9.28219 22.3229L8.90256 23.2846L8.71414 23.7656L8.588 24.249L8.33877 25.216L8.21825 26.186L8.16005 26.671L8.1653 27.1564L8.17967 28.1271L8.32155 29.0963C8.34867 29.2578 8.361 29.4197 8.4 29.5808L8.53807 30.0635C8.63491 30.3851 8.71112 30.7077 8.82431 31.0286L9.2357 31.9878C9.31047 32.1473 9.35858 32.3085 9.45512 32.4666L9.72965 32.9418C10.4371 34.2107 11.3998 35.4603 12.6105 36.681C13.2636 37.2846 13.8607 37.8965 14.6417 38.481L15.1959 38.9242C15.3785 39.0722 15.561 39.2203 15.7788 39.3625L17.0284 40.2254C17.4228 40.5172 17.9254 40.7884 18.3753 41.0696L19.0677 41.4882L19.4136 41.6975L19.7903 41.9001L21.3046 42.7089L21.6832 42.9111L22.0931 43.1057L22.9124 43.4948C27.2813 45.5756 32.5106 47.4136 38.4257 48.9473C39.1562 49.1421 39.9333 49.3138 40.6845 49.4983C41.4417 49.6799 42.1907 49.8661 42.989 50.0247L45.3469 50.5213C46.1433 50.68 46.9675 50.8211 47.7762 50.9719L48.9946 51.1949C49.4019 51.2684 49.8283 51.3278 50.2439 51.3949L52.7531 51.7871C53.6042 51.9048 54.4668 52.0124 55.323 52.1257L56.6096 52.2937C57.0443 52.3432 57.4848 52.3867 57.9219 52.4336L60.55 52.7105L63.2168 52.9337C64.1099 53.0013 65.0125 53.0532 65.9098 53.114C66.3576 53.1467 66.8116 53.1653 67.2644 53.187L68.623 53.2512C72.2532 53.406 75.9159 53.4434 79.5654 53.3627C86.8461 53.1988 94.0828 52.5577 100.532 51.3587C102.144 51.0612 103.705 50.7301 105.205 50.3673C106.716 50.0088 108.161 49.6167 109.532 49.1935C110.914 48.7739 112.215 48.3214 113.479 47.8557C114.718 47.3817 115.934 46.8985 117.058 46.3875C121.605 44.3566 125.282 42.082 128.501 39.7401C131.743 37.4015 134.353 34.9606 136.298 32.4496C138.229 29.9422 139.271 27.36 139.4 24.7622C139.462 23.4669 139.239 22.172 138.735 20.8888C138.215 19.6073 137.421 18.3415 136.361 17.1021C135.284 15.865 133.915 14.6621 132.266 13.5061L131.641 13.0743L131.328 12.8585L130.983 12.6491L129.597 11.8123L128.085 11.0035C127.843 10.8662 127.56 10.7394 127.288 10.6096L126.467 10.2215L125.812 9.91233L125.107 9.61755L123.7 9.02849L122.197 8.47247L121.446 8.19473L120.65 7.93395L119.057 7.41468C118.506 7.25007 117.937 7.09331 117.379 6.93234C116.821 6.77161 116.264 6.61025 115.672 6.4659L114.799 6.24273L113.903 6.03179C109.131 4.9214 103.882 4.09006 98.3587 3.56987C92.9209 3.05684 87.3113 2.8055 81.6824 2.82269C73.4172 2.84345 65.2314 3.39345 57.5235 4.4459C56.2623 4.61846 55.0181 4.80282 53.8033 5.00866L51.9735 5.3085C51.666 5.3564 51.367 5.41006 51.0729 5.46709L50.1849 5.63344C45.4903 6.50415 41.0458 7.53308 36.9136 8.70585C32.8768 9.85056 29.1089 11.1084 25.6467 12.4671C22.2667 13.7882 19.1567 15.1921 16.3404 16.6684C15.6884 16.9997 15.1315 17.321 14.5837 17.6124C14.3128 17.7589 14.0524 17.8997 13.8026 18.0349L13.1196 18.4314C12.2461 18.9365 11.5174 19.3472 10.995 19.675C9.92692 20.3256 9.41219 20.5907 9.49466 20.4724C10.0768 19.9525 10.7488 19.4457 11.5067 18.9548C12.1859 18.5168 12.9678 17.9713 14.038 17.3563C15.0641 16.732 16.3353 16.0302 17.8517 15.2508C18.4022 14.9785 18.9535 14.7058 19.5057 14.4327C20.0464 14.1564 20.6573 13.8979 21.2313 13.6289C22.372 13.0886 23.6292 12.5784 24.8558 12.0567C25.479 11.7988 26.1441 11.5532 26.7883 11.3004L27.7641 10.9238C28.097 10.8006 28.4423 10.6814 28.7811 10.5599C29.4638 10.3184 30.1471 10.0766 30.8311 9.83454C31.5435 9.60253 32.2567 9.37027 32.9706 9.13776C35.8627 8.20989 38.937 7.35517 42.1704 6.57999L43.3841 6.28517C43.7904 6.18771 44.2173 6.10109 44.6334 6.0085L47.1509 5.46266C48.8876 5.13295 50.5909 4.77769 52.3979 4.49042C59.581 3.25604 67.3195 2.47298 75.2656 2.17645C83.2628 1.86026 91.3567 2.06815 99.1396 2.78965C105.606 3.39298 111.704 4.4089 117.133 5.78713C119.849 6.48712 122.371 7.2759 124.667 8.14299L125.537 8.4655L126.351 8.80526C126.886 9.0339 127.453 9.25414 127.961 9.49022L129.47 10.2033L129.845 10.3823L130.192 10.5678L130.887 10.9391L131.581 11.3105C131.818 11.4332 132.011 11.5651 132.228 11.692L133.494 12.4613C134.247 12.9907 135.063 13.5103 135.711 14.0572L136.224 14.4631L136.48 14.666L136.706 14.8732L137.612 15.702C137.904 15.9793 138.144 16.2631 138.413 16.5434L138.805 16.9651L139.14 17.3927C140.057 18.53 140.742 19.6889 141.19 20.8607L141.496 21.7395C141.576 22.0331 141.626 22.3279 141.691 22.6218C141.72 22.7688 141.758 22.9159 141.78 23.0629L141.815 23.504C141.832 23.798 141.878 24.092 141.869 24.3858C141.882 24.412 141.894 24.4369 141.911 24.4695Z" fill="#6090FF"/>
</svg>
