<svg width="373" height="17" viewBox="0 0 373 17" fill="none" xmlns="http://www.w3.org/2000/svg">
<path fill-rule="evenodd" clip-rule="evenodd" d="M41.5311 1.90975C38.9178 2.98893 32.6254 5.99662 27.5256 8.6346C22.4765 11.2726 17.9855 13.421 17.5034 13.421C16.5646 13.421 14.1797 11.2926 9.96791 6.53623C8.19186 4.54775 6.28885 2.72909 5.75604 2.49927C4.38594 1.88973 1.95022 2.07959 1.01144 2.86898C0.301023 3.42856 0.351891 3.63841 1.13843 4.31789C1.67125 4.73757 2.07719 5.2072 2.07719 5.36708C2.07719 5.50697 3.54888 7.39556 5.35031 9.52394C9.20688 14.1204 11.6934 16.039 14.6112 16.6685C18.8738 17.5778 21.1316 16.8583 31.1537 11.4325C34.6043 9.56388 39.4505 7.01588 42.0638 5.73685L46.6814 3.42861L51.2994 8.47475C57.4141 15.1796 59.1902 16.3488 63.4528 16.3488C65.7616 16.3488 67.4868 15.6692 71.2165 13.1911C78.2192 8.59463 85.8563 5.38707 92.453 4.31789L94.5842 3.96818L96.1319 4.89746C97.0199 5.40708 99.4557 7.48547 101.536 9.49393C105.976 13.8406 107.702 15.0497 110.011 15.5194C114.527 16.4287 117.952 15.5893 124.067 12.1119C131.171 8.04503 138.072 5.36708 141.193 5.36708C142.842 5.36708 143.198 5.62692 147.359 9.59389C154.057 16.019 157.025 15.989 170.6 9.45399C174.811 7.42553 177.12 6.76604 178.541 7.14575C179.074 7.26566 180.901 8.40478 182.626 9.69379C184.351 10.9828 186.66 12.4217 187.777 12.8914C189.603 13.6608 190.136 13.7807 192.572 13.7807C195.54 13.7807 198.077 13.1512 203.964 10.9828C207.516 9.67385 211.068 8.74454 213.276 8.5347C214.747 8.39481 215.001 8.4847 216.726 9.86365C219.39 11.9421 220.583 12.3817 223.424 12.3817C226.266 12.3817 227.991 11.9421 235.096 9.22418C241.083 6.95591 244.585 5.83675 245.651 5.83675C246.006 5.83675 246.767 6.4463 247.249 7.16575C250.573 11.8122 252.222 13.1012 256.028 14.0105C259.757 14.9198 263.436 14.5202 271.378 12.4218C276.782 10.9928 279.142 10.5032 280.74 10.5032C281.501 10.5032 283.227 10.9928 284.901 11.6723C287.997 12.9314 289.824 13.311 292.97 13.311C295.507 13.311 297.359 12.9613 303.88 11.2127C311.111 9.29412 310.984 9.32412 314.029 9.67385C315.5 9.86371 319.611 10.1135 323.163 10.2534C333.895 10.723 340.111 11.5624 345.693 13.311C350.793 14.9198 354.827 15.3895 360.333 14.9698C365.788 14.5701 372.131 13.7507 372.486 13.381C373.197 12.6316 371.725 12.5416 365.839 12.9413C357.643 13.4809 355.106 13.431 351.782 12.6616C350.235 12.3118 347.216 11.6123 345.034 11.1227C339.274 9.79371 334.707 9.20417 326.765 8.76451C322.909 8.55467 317.987 8.13497 315.805 7.80522C313.191 7.40552 311.288 7.26563 309.994 7.36555C308.98 7.4355 305.123 8.27491 301.444 9.23418C297.638 10.2334 294.162 10.9828 293.325 10.9828C292.386 10.9828 290.712 10.5631 288.758 9.8337C284.673 8.31486 281.933 7.96511 277.797 8.5047C276.072 8.71454 271.987 9.58389 268.663 10.3933C261.254 12.2419 259.529 12.3318 257.398 11.0228C256.637 10.5532 255.14 9.1342 254.125 7.86517C251.867 4.99736 250.497 4.07811 247.782 3.72837C244.585 3.30869 240.728 4.19797 232.787 7.11574C226.748 9.35404 224.008 10.1935 223.526 9.98361C223.475 9.93365 222.689 9.37407 221.877 8.72456C217.538 5.33715 212.261 5.497 200.183 9.44398C196.86 10.5431 193.663 11.4325 193.13 11.4325C192.065 11.4325 190.288 10.4032 186.787 7.74527C181.51 3.72833 176.181 3.63842 167.682 7.39556C160.146 10.733 157.609 11.7423 157 11.6024C156.645 11.5124 154.996 10.1035 153.321 8.47475C151.672 6.81602 149.642 5.06736 148.932 4.54776C147.333 3.42861 144.238 2.55922 141.751 2.55922C136.17 2.55922 127.644 5.47701 118.866 10.3133C116.202 11.8322 113.588 13.0712 113.182 13.0712C112.345 13.0712 111.178 12.1619 107.321 8.54471C103.947 5.34715 101.156 3.35863 98.7199 2.44932C96.1066 1.47007 92.6053 1.49008 87.683 2.53928C80.3251 4.0781 73.6777 6.71609 66.5735 10.9029L63.1229 12.9114L62.2854 12.1219C61.8795 11.6823 59.5452 9.22417 57.1856 6.65613C54.8767 4.08809 52.6695 1.67991 52.3143 1.33018C51.9591 0.980446 51.1218 0.540801 50.4114 0.350945C47.9249 -0.348521 46.504 -0.0887118 41.4549 1.91976L41.5311 1.90975Z" fill="url(#paint0_linear_7_41)"/>
<defs>
<linearGradient id="paint0_linear_7_41" x1="308.674" y1="-140" x2="472.116" y2="207.506" gradientUnits="userSpaceOnUse">
<stop stop-color="#6090FF"/>
<stop offset="1" stop-color="white"/>
</linearGradient>
</defs>
</svg>
