<svg width="230" height="228" viewBox="0 0 230 228" fill="none" xmlns="http://www.w3.org/2000/svg">
<path d="M60.6288 77.9797C61.5258 80.3271 62.412 82.6776 63.237 85.0551C63.6889 86.3097 64.1282 87.5757 64.6635 88.7956C67.5268 95.3042 70.4703 101.783 73.1747 108.361C74.8205 112.419 76.4239 116.493 77.9849 120.585L80.3074 126.729L82.5605 132.899C82.9837 134.159 83.3043 135.451 83.5194 136.762C83.6317 137.295 83.6146 137.847 83.4694 138.372C83.3242 138.897 83.0551 139.38 82.6843 139.782C81.6819 140.917 80.0893 140.708 79.1554 139.168C78.5726 138.152 78.1204 137.067 77.8094 135.939C77.051 133.384 76.1859 130.871 75.2139 128.4C74.251 125.926 73.1861 123.491 72.0192 121.095C71.3763 119.773 70.6264 118.427 70.2907 117.032C69.2129 112.574 67.1973 108.439 65.7634 104.106C64.6954 100.886 63.3806 97.7417 62.2139 94.5508L59.085 86.0175C58.0258 83.1795 57.037 80.3123 55.9859 77.4692C55.6081 76.3503 55.305 75.2079 55.0786 74.0495C54.892 72.9488 54.767 71.8386 54.7044 70.7242C54.6467 69.7386 55.2733 69.544 55.9931 70.4182C57.0229 71.6748 57.9629 73.0011 58.8063 74.3874C59.1534 74.9563 59.4687 75.5478 59.759 76.1521C60.0237 76.767 60.2894 77.3841 60.5535 77.9975L60.6288 77.9797Z" fill="black"/>
<path d="M133.55 70.4096L133.195 73.6016L132.761 76.789C132.611 77.9165 132.459 79.0498 132.406 80.1846C132.331 81.6986 132.275 83.2135 132.225 84.7285L132.049 89.2703L131.717 98.351L131.281 109.531L130.906 120.714C130.837 121.846 130.686 122.971 130.454 124.081C130.378 124.54 130.194 124.975 129.918 125.351C129.642 125.728 129.282 126.035 128.865 126.248C127.727 126.862 126.531 126.223 126.245 124.698C126.08 123.704 126.045 122.692 126.141 121.688C126.486 117.122 126.54 112.54 126.302 107.967C126.158 106.703 126.161 105.427 126.309 104.163C126.993 100.27 126.86 96.3159 127.307 92.4086C127.642 89.507 127.768 86.5769 128.089 83.6697C128.681 78.4874 129.324 73.3147 130.157 68.1663C130.452 66.2083 131.072 64.3123 131.992 62.5548C132.388 61.7933 133.041 61.9174 133.21 62.8659C133.44 64.2262 133.581 65.6 133.63 66.9785C133.65 68.1185 133.601 69.2587 133.484 70.393L133.55 70.4096Z" fill="black"/>
<path d="M194.421 102.622C193.225 104.05 192.023 105.472 190.813 106.89C190.138 107.616 189.507 108.38 188.924 109.18C187.418 111.342 185.959 113.538 184.502 115.732C183.041 117.925 181.568 120.106 180.061 122.262C178.211 124.921 176.333 127.56 174.461 130.203L168.801 138.102C168.19 138.887 167.485 139.596 166.701 140.212C165.969 140.832 164.926 140.846 163.797 140.527C162.15 140.062 161.034 138.642 161.451 137.326C161.744 136.495 162.208 135.733 162.814 135.089C165.446 132.086 167.712 128.786 169.565 125.258C170.083 124.281 170.55 123.211 171.367 122.484C173.963 120.154 175.65 117.144 177.938 114.59C179.631 112.687 181.138 110.633 182.793 108.699C184.269 106.974 185.758 105.262 187.26 103.561L191.874 98.5469C193.07 97.2325 194.566 96.2203 196.237 95.5945C196.401 95.5212 196.585 95.4985 196.763 95.5291C196.941 95.5598 197.105 95.6425 197.236 95.7665C197.366 95.8906 197.456 96.0505 197.494 96.2256C197.532 96.4007 197.516 96.583 197.449 96.7493C197.049 97.8992 196.581 99.0245 196.047 100.119C195.546 100.974 194.982 101.791 194.359 102.564L194.421 102.622Z" fill="black"/>
<path d="M207.952 156.49C207.497 156.701 207.051 156.929 206.582 157.113L205.173 157.661C204.67 157.842 204.184 158.065 203.719 158.326C202.503 159.069 201.312 159.859 200.086 160.579C198.867 161.313 197.644 162.04 196.397 162.72C194.863 163.561 193.316 164.374 191.742 165.136L187.022 167.422C186.51 167.626 185.965 167.734 185.414 167.74C184.875 167.778 184.271 167.293 183.681 166.561C182.821 165.494 182.446 164.086 182.929 163.472C183.239 163.107 183.658 162.848 184.126 162.735C186.189 162.125 188.11 161.115 189.778 159.765C190.247 159.391 190.694 158.92 191.295 158.845C193.204 158.586 194.691 157.457 196.443 156.877C197.75 156.455 198.936 155.776 200.227 155.317C202.525 154.488 204.796 153.608 207.13 152.852C208.09 152.525 209.13 152.501 210.104 152.786C210.223 152.823 210.333 152.885 210.425 152.968C210.517 153.051 210.589 153.154 210.637 153.268C210.685 153.382 210.708 153.505 210.703 153.628C210.698 153.752 210.665 153.872 210.608 153.982C210.407 154.265 210.194 154.541 209.973 154.808C209.762 155.074 209.528 155.322 209.274 155.548C208.852 155.881 208.401 156.176 207.926 156.427L207.952 156.49Z" fill="black"/>
<path d="M24.8706 145.261C25.9127 145.856 26.9468 146.46 27.9727 147.074C28.5079 147.412 29.0631 147.718 29.6354 147.99C31.1882 148.648 32.7366 149.325 34.2738 150.031C35.8077 150.744 37.3129 151.514 38.7895 152.341C40.5945 153.378 42.3696 154.47 44.0955 155.634C45.8216 156.798 47.5149 158.008 49.1753 159.264C49.6713 159.677 50.0934 160.169 50.424 160.721C50.7717 161.238 50.6543 162.001 50.2875 162.834C49.752 164.048 48.6182 164.912 47.7801 164.677C47.2632 164.507 46.7993 164.208 46.4334 163.809C44.7122 162.073 42.6601 160.694 40.3963 159.752C39.7712 159.483 39.0738 159.283 38.6227 158.786C37.1808 157.188 35.1873 156.42 33.4899 155.2C32.8553 154.75 32.1965 154.334 31.5165 153.955C30.8449 153.561 30.1611 153.187 29.4933 152.785C27.1105 151.354 24.7038 149.936 22.2292 148.629C21.2061 148.046 20.3987 147.154 19.9259 146.082C19.6591 145.587 19.902 145.055 20.5576 144.802L21.2259 144.621C21.3284 144.587 21.4364 144.574 21.544 144.582L21.8463 144.588C22.2451 144.599 22.6428 144.633 23.0374 144.692C23.3539 144.742 23.6641 144.825 23.9629 144.939C24.2544 145.067 24.5412 145.207 24.8342 145.329L24.8706 145.261Z" fill="black"/>
</svg>
